<?xml version="1.0" standalone="no"?>
<!DOCTYPE svg PUBLIC "-//W3C//DTD SVG 20010904//EN"
 "http://www.w3.org/TR/2001/REC-SVG-20010904/DTD/svg10.dtd">
<svg version="1.0" xmlns="http://www.w3.org/2000/svg"
 width="2000.000000pt" height="2000.000000pt" viewBox="0 0 2000.000000 2000.000000"
 preserveAspectRatio="xMidYMid meet">
<metadata>
Created by potrace 1.14, written by Peter Selinger 2001-2017
</metadata>
<g transform="translate(0.000000,2000.000000) scale(0.100000,-0.100000)"
fill="#000000" stroke="none">
<path d="M4309 18996 c-2 -2 -35 -6 -74 -10 -149 -13 -203 -20 -305 -41 -14
-2 -41 -7 -60 -10 -125 -21 -402 -96 -517 -141 -35 -13 -93 -36 -130 -50 -125
-48 -391 -180 -498 -247 -382 -238 -685 -502 -941 -822 -207 -258 -374 -534
-493 -815 -18 -41 -36 -84 -41 -95 -11 -25 -62 -169 -89 -250 -17 -54 -48
-165 -56 -205 -2 -8 -10 -42 -18 -75 -9 -33 -18 -76 -21 -96 -3 -20 -7 -42
-10 -50 -5 -13 -10 -52 -22 -144 -3 -22 -7 -51 -9 -65 -17 -96 -20 -454 -20
-2480 l0 -2275 3605 0 3605 0 54 75 c220 308 467 521 796 688 73 37 123 60
150 68 6 2 48 17 95 34 108 40 298 87 387 95 37 4 72 9 76 12 16 9 342 11 422
2 148 -16 195 -24 315 -54 597 -151 1098 -552 1373 -1100 90 -180 153 -368
192 -570 45 -238 41 -566 -11 -800 -9 -38 -18 -79 -20 -91 -8 -40 -63 -209
-89 -274 -213 -519 -613 -924 -1140 -1155 -106 -47 -327 -112 -437 -129 -155
-24 -199 -28 -355 -30 -156 -3 -309 11 -442 39 -42 9 -87 19 -101 21 -112 22
-383 132 -518 211 -41 24 -75 43 -78 43 -5 0 -140 97 -204 148 -103 81 -270
255 -359 372 -48 64 -90 123 -93 131 -4 12 -487 14 -3617 14 l-3612 0 4 -2320
c2 -1276 6 -2333 10 -2350 3 -16 9 -57 12 -90 4 -33 9 -69 11 -80 2 -10 6 -37
9 -60 31 -215 134 -575 225 -790 36 -85 162 -338 208 -415 159 -273 353 -523
573 -740 130 -128 178 -170 404 -348 26 -20 197 -134 257 -170 188 -115 474
-249 663 -312 55 -18 109 -37 120 -41 20 -8 115 -36 151 -44 11 -2 47 -11 81
-19 34 -9 77 -18 95 -22 18 -3 38 -7 43 -8 34 -9 128 -25 185 -31 25 -3 56 -8
70 -10 14 -3 66 -8 115 -12 120 -11 11438 -10 11541 0 44 4 94 10 110 12 71
12 92 15 139 20 28 4 100 18 160 31 61 14 117 27 125 29 196 42 495 153 721
266 555 277 1032 697 1375 1214 66 98 164 259 164 268 0 4 13 28 28 54 92 158
242 546 288 743 2 8 12 51 23 95 11 44 22 100 26 125 3 25 8 52 10 60 2 8 7
30 10 48 3 17 7 44 10 60 6 35 14 107 23 202 4 41 7 1101 7 2355 l0 2280
-2094 0 -2093 0 -9 -23 c-5 -12 -11 -33 -13 -45 -22 -106 -114 -400 -176 -561
-153 -401 -368 -798 -618 -1142 -226 -311 -568 -677 -831 -890 -13 -10 -28
-24 -35 -30 -30 -28 -272 -208 -356 -266 -255 -173 -560 -341 -817 -448 -54
-23 -111 -47 -128 -55 -16 -7 -70 -27 -120 -45 -49 -17 -108 -38 -130 -47
-144 -54 -585 -164 -755 -188 -25 -3 -52 -8 -60 -10 -16 -4 -63 -11 -150 -20
-30 -3 -62 -8 -70 -10 -8 -2 -60 -7 -115 -10 -55 -4 -116 -9 -135 -11 -57 -6
-498 -6 -590 1 -95 6 -272 23 -310 29 -14 2 -47 7 -75 10 -47 6 -77 11 -135
22 -14 2 -43 7 -65 10 -22 3 -80 15 -130 26 -49 11 -108 24 -130 29 -99 20
-355 96 -500 148 -214 76 -523 210 -587 253 -14 10 -32 18 -40 18 -8 0 -18 4
-24 9 -5 5 -56 35 -114 67 -269 148 -595 379 -845 598 -78 68 -356 344 -425
421 -327 367 -627 831 -822 1270 -49 110 -78 177 -78 181 0 2 551 4 1224 4
l1224 0 25 -32 c40 -52 172 -183 276 -272 417 -358 887 -571 1451 -655 104
-16 172 -18 400 -16 151 1 289 5 305 8 17 4 48 8 70 11 62 6 214 36 272 52 29
9 63 17 77 20 83 15 417 143 521 199 22 12 72 39 110 60 300 162 650 464 856
740 24 33 49 66 56 72 49 53 221 356 296 523 79 177 166 475 192 655 4 28 9
59 11 70 2 11 7 52 10 90 4 39 8 84 10 100 6 49 6 376 0 430 -22 203 -32 267
-60 390 -2 6 -7 28 -11 50 -5 22 -10 42 -10 45 -16 70 -78 252 -122 360 -38
93 -141 300 -181 364 -183 293 -340 481 -571 685 -35 31 -69 61 -75 66 -34 31
-280 205 -290 205 -3 0 -24 13 -48 29 -49 33 -253 137 -345 175 -219 91 -482
164 -688 190 -22 3 -62 9 -90 13 -105 16 -694 7 -725 -12 -3 -2 -25 -6 -50 -9
-381 -52 -859 -252 -1194 -500 -161 -119 -384 -322 -454 -413 l-24 -33 -1225
0 c-976 0 -1224 3 -1220 13 90 234 310 651 466 882 56 82 201 286 211 295 3 3
32 39 65 80 273 345 680 719 1065 981 323 220 729 429 1065 548 50 18 99 36
110 41 21 10 202 64 325 98 73 20 224 55 285 66 30 5 111 21 150 30 11 2 40 7
65 10 25 3 54 8 65 10 11 2 51 7 88 11 37 3 76 8 85 10 9 1 60 6 112 10 52 4
113 9 135 11 48 5 525 4 575 0 19 -2 76 -7 125 -10 50 -4 101 -9 115 -11 14
-2 52 -6 85 -10 33 -3 71 -8 85 -10 14 -3 39 -7 55 -9 125 -20 141 -23 255
-47 336 -72 619 -161 925 -291 163 -70 403 -189 499 -247 36 -23 68 -41 71
-41 17 0 346 -222 485 -328 308 -235 623 -542 861 -842 412 -517 716 -1105
888 -1715 17 -61 35 -123 40 -140 5 -16 12 -46 15 -66 l6 -36 2100 0 2101 0
-4 2321 c-1 1277 -5 2330 -9 2341 -3 11 -9 51 -13 88 -3 37 -8 76 -10 85 -1 9
-6 37 -9 62 -74 486 -301 1048 -582 1444 -27 38 -61 86 -76 108 -133 187 -439
505 -623 644 -27 21 -59 47 -70 56 -36 34 -309 214 -400 265 -202 113 -394
200 -585 266 -118 40 -262 84 -300 91 -14 2 -43 9 -65 14 -22 6 -53 14 -70 16
-46 9 -75 15 -93 20 -9 3 -37 7 -62 10 -25 3 -56 8 -70 11 -13 3 -52 7 -87 10
-34 3 -72 9 -85 13 -23 7 -11471 15 -11479 8z"/>
</g>
</svg>
